<svg width="74" height="75" viewBox="0 0 74 75" fill="none" xmlns="http://www.w3.org/2000/svg">
<g id="bulletHole">
<path id="bulletOutside" d="M20.1312 0.53363C17.4666 5.3032 14.8021 10.0713 12.1375 14.8408C8.67704 11.147 5.21656 7.4531 1.75757 3.76073C4.14236 10.0713 6.52714 16.3833 8.91043 22.6954C6.65131 25.1475 1.23992 27.4081 0.605576 29.5355C3.4721 29.531 7.94993 30.2297 5.88382 34.1824C5.06246 38.6034 8.25215 43.1859 7.91552 46.9711C5.40956 48.9759 4.0511 52.6862 8.60373 52.1326C11.3296 52.0279 15.0235 53.539 12.902 56.8005C12.1749 59.2391 10.4828 64.9692 15.0414 62.4258C18.8789 61.9171 23.3747 59.3588 26.8367 60.3462C28.5437 64.6849 26.0812 69.3677 26.6048 73.8859C27.866 72.4347 28.8654 69.3976 30.0503 67.348C31.5075 65.2983 32.0626 61.4533 34.1242 60.5856C37.8914 60.2864 43.3656 55.828 45.1505 61.6329C45.8432 63.4731 48.1846 66.7794 47.7327 62.5006C46.8246 57.5934 48.6244 53.1799 52.227 49.8885C53.394 47.0459 57.9122 48.4672 58.4987 48.2428C58.1531 46.8813 61.8799 48.5869 59.8078 46.6419C57.4409 45.5797 53.7979 41.0031 58.735 41.1049C63.4612 41.1079 68.1889 40.9657 72.9121 40.882C67.6952 38.8562 62.4738 36.8305 57.2539 34.8048C58.0887 33.6468 62.3481 31.5433 58.4972 31.7872C57.215 29.8198 64.0028 29.543 65.6725 28.0873C66.9636 27.827 70.4734 26.3803 67.0534 26.485C63.2637 25.6247 58.2234 26.108 55.2192 24.4039C55.3733 20.4647 59.5594 18.213 60.6919 14.6419C57.399 14.1826 53.7052 15.9883 50.2118 15.6772C48.3686 14.4578 53.4643 12.088 54.8811 11.0078C56.1857 10.2014 59.6911 7.77625 56.1962 9.03297C52.8554 9.86331 49.6253 11.1694 46.283 11.8322C43.225 9.59551 45.0517 4.21853 42.2435 1.56893C39.6822 2.82865 36.6272 7.90343 34.3082 6.83671C34.6074 4.58957 32.5024 2.90346 30.8956 5.09973C30.3989 2.34242 29.6105 8.35674 27.5623 7.78971C23.4839 8.638 22.9947 2.39478 20.1402 0.547099L20.1312 0.53363V0.53363Z" fill="#864879" stroke="#888A85" stroke-width="0.44883" stroke-linecap="round" stroke-linejoin="round"/>
<g id="bulletInside">
<g id="bulletInsideDiameter" filter="url(#filter0_f_2_7)">
<path d="M52.7344 32.5427C52.7344 37.7544 50.6641 42.7525 46.979 46.4377C43.2939 50.1229 38.2958 52.1932 33.0842 52.1932C27.8726 52.1932 22.8745 50.1229 19.1894 46.4377C15.5043 42.7525 13.434 37.7544 13.434 32.5427C13.434 27.3311 15.5043 22.3329 19.1894 18.6477C22.8745 14.9625 27.8726 12.8922 33.0842 12.8922C38.2958 12.8922 43.2939 14.9625 46.979 18.6477C50.6641 22.3329 52.7344 27.3311 52.7344 32.5427V32.5427Z" fill="#1F1D36"/>
</g>
<path id="bulletInsideHole" d="M35.2119 17.4695C33.6649 18.798 30.2732 22.7552 28.8744 19.4249C28.3433 22.0057 27.5085 19.2648 27.3813 21.6735C26.1679 24.6044 20.3765 20.4078 22.4307 23.8503C22.2123 27.1552 19.5178 30.0292 18.7892 32.7177C20.5082 34.8706 20.0369 38.8039 22.2661 41.1064C23.1189 43.6049 26.904 44.2033 29.2843 45.46C32.3319 47.1506 35.9853 44.3379 38.7756 46.5073C40.7998 48.6467 37.5428 43.0214 40.707 43.2458C44.4772 43.5001 42.6041 38.3954 46.5269 38.6887C48.6154 38.6632 51.7243 38.5091 48.0499 37.6683C44.2528 36.4984 46.5059 31.5478 48.008 31.0391C44.546 31.1184 44.751 25.4183 43.6005 24.8423C41.0826 25.0338 42.3707 21.1334 42.6609 21.6616C39.6747 23.1053 36.3115 21.3354 35.5261 18.9237C35.4797 18.43 35.4393 17.9213 35.2119 17.4695V17.4695Z" fill="black"/>
</g>
</g>
<defs>
<filter id="filter0_f_2_7" x="11.9332" y="11.3914" width="42.3021" height="42.3027" filterUnits="userSpaceOnUse" color-interpolation-filters="sRGB">
<feFlood flood-opacity="0" result="BackgroundImageFix"/>
<feBlend mode="normal" in="SourceGraphic" in2="BackgroundImageFix" result="shape"/>
<feGaussianBlur stdDeviation="0.750407" result="effect1_foregroundBlur_2_7"/>
</filter>
</defs>
</svg>
