<svg width="86" height="101" viewBox="0 0 86 101" fill="none" xmlns="http://www.w3.org/2000/svg">
<g id="c-program 1" clip-path="url(#clip0_21_209)">
<g id="Group">
<path id="Vector" fill-rule="evenodd" clip-rule="evenodd" d="M84.9131 75.75C85.5904 74.5335 86.0079 73.1527 86.0079 71.9198V29.0802C86.0079 27.8473 85.5904 26.4747 84.9131 25.25L43.0039 50.5L84.9131 75.75Z" fill="#711A75"/>
<path id="Vector_2" fill-rule="evenodd" clip-rule="evenodd" d="M46.7294 100.071L82.2824 78.6515C83.3064 78.035 84.2357 76.9665 84.9131 75.75L43.0039 50.5L1.09479 75.75C1.77214 76.9665 2.70153 78.035 3.72543 78.6515L39.2785 100.071C41.3263 101.304 44.6737 101.304 46.7294 100.071Z" fill="#711A75"/>
<path id="Vector_3" fill-rule="evenodd" clip-rule="evenodd" d="M84.9131 25.25C84.2357 24.0336 83.3064 22.965 82.2824 22.3486L46.7294 0.928833C44.6816 -0.304077 41.3263 -0.304077 39.2785 0.928833L3.72543 22.3486C1.67763 23.5815 0 26.6145 0 29.0803V71.9198C0 73.1527 0.417437 74.5254 1.09479 75.75L43.0039 50.5L84.9131 25.25Z" fill="#711A75"/>
<path id="Vector_4" fill-rule="evenodd" clip-rule="evenodd" d="M43.0039 80.4188C27.1965 80.4188 14.3347 66.9965 14.3347 50.5002C14.3347 34.0038 27.1965 20.5815 43.0039 20.5815C53.2036 20.5815 62.718 26.3105 67.8297 35.5326L55.4247 43.0287C52.8649 38.4094 48.1077 35.5491 43.0039 35.5491C35.0963 35.5491 28.6693 42.2561 28.6693 50.5084C28.6693 58.7524 35.0963 65.4677 43.0039 65.4677C48.1077 65.4677 52.8649 62.5991 55.4247 57.988L67.8297 65.4841C62.718 74.6899 53.2036 80.4188 43.0039 80.4188Z" fill="#180A0A"/>
</g>
</g>
<defs>
<clipPath id="clip0_21_209">
<rect width="86" height="101" fill="white"/>
</clipPath>
</defs>
</svg>
