<svg width="99" height="108" viewBox="0 0 99 108" fill="none" xmlns="http://www.w3.org/2000/svg">
<g id="download-icon-bxl+c+plus+plus-1325051931431540241_0 1">
<path id="Vector" d="M25.0718 54C25.0718 39.303 36.0278 27.351 49.5 27.351C58.1914 27.351 66.297 32.454 70.6571 40.6665L64.4738 44.568L85.2101 31.509C84.6326 30.42 83.8406 29.4705 82.9703 28.9215L52.6721 9.84152C50.9231 8.73902 48.0686 8.73902 46.3238 9.84152L16.0256 28.9215C14.2849 30.0195 12.8576 32.7195 12.8576 34.92V73.08C12.8576 74.1825 13.2124 75.4065 13.7899 76.491L28.347 67.32C26.2639 63.4005 25.0718 58.851 25.0718 54Z" fill="#F10086"/>
<path id="Vector_2" d="M60.0765 47.3355C57.8985 43.227 53.8436 40.6755 49.5 40.6755C42.7639 40.6755 37.2859 46.6515 37.2859 54C37.2859 56.4255 37.8881 58.698 38.9235 60.66L49.5 54L60.0765 47.3355Z" fill="#F10086"/>
<path id="Vector_3" d="M85.2101 31.509L64.3954 44.6175L60.0806 47.34C60.0806 47.34 60.0806 47.34 60.0765 47.3355L49.5 54L38.9276 60.66C41.0437 64.638 44.9914 67.3245 49.5 67.3245C53.8477 67.3245 57.9026 64.773 60.0806 60.66L70.653 67.3335C66.2929 75.546 58.1914 80.649 49.4959 80.649C40.4704 80.649 32.571 75.2805 28.3429 67.32L13.7857 76.491C14.3632 77.58 15.1552 78.5295 16.0256 79.0785L46.3237 98.1585C48.0686 99.261 50.9231 99.261 52.6721 98.1585L82.9702 79.0785C83.8406 78.5295 84.6326 77.58 85.2101 76.491C85.7876 75.4065 86.1424 74.1825 86.1424 73.08V34.92C86.1424 33.8175 85.7876 32.5935 85.2101 31.509ZM73.9282 55.4805H71.214V58.4415H68.5039V55.4805H65.7896V52.5195H68.5039V49.5585H71.214V52.5195H73.9282V55.4805ZM84.1087 55.4805H81.3945V58.4415H78.6802V55.4805H75.9701V52.5195H78.6802V49.5585H81.3945V52.5195H84.1087V55.4805Z" fill="#F10086"/>
</g>
</svg>
