<svg width="114" height="109" viewBox="0 0 114 109" fill="none" xmlns="http://www.w3.org/2000/svg">
<g id="cssIcon">
<g id="Group">
<g id="c133de6af664cd4f011a55de6b001a2b">
<path id="Vector" d="M45.6456 10.7475V15.3473H33.3336V1.09009H45.6456V6.13679H38.6118V10.7475H45.6456ZM58.2996 6.13679H63.213V1.09009H50.901C50.901 1.09009 50.901 3.61889 50.901 6.13679C52.5426 7.70639 53.409 8.46939 55.7916 10.7475C54.4008 10.7475 50.901 10.7475 50.901 10.7475V15.3473H63.213V10.7475L58.2996 6.13679ZM75.7416 6.13679H80.655V1.09009H68.343C68.343 1.09009 68.343 3.61889 68.343 6.13679C69.9846 7.70639 70.851 8.46939 73.2336 10.7475C71.8428 10.7475 68.343 10.7475 68.343 10.7475V15.3473H80.655V10.7475L75.7416 6.13679ZM96.8772 22.1271L89.3988 99.5716L57 107.91L24.6012 99.5716L17.1228 22.1271H96.8772ZM81.8064 37.8667H56.9658H31.692L32.9004 47.2189H56.9658H58.3224L56.9658 47.753L33.7782 56.9853L34.542 66.1304L56.9658 66.1958L68.9814 66.2285L68.2062 78.4147L56.9544 81.4449V81.434L56.8632 81.4558L45.999 78.8289L45.3378 71.2643H45.3036H35.226H35.1918L36.5142 85.8703L56.9544 91.6473V91.6364L56.9886 91.6473L77.3376 86.0011L79.971 56.9962H56.9658H56.9088L56.9658 56.9744L80.8146 47.2298L81.8064 37.8667Z" fill="#711A75"/>
</g>
</g>
</g>
</svg>
