<svg width="35" height="35" viewBox="0 0 35 35" fill="none" xmlns="http://www.w3.org/2000/svg">
<g id="world-wide-web-svgrepo-com 1">
<path id="Vector" d="M17.5 0C7.835 0 0 7.835 0 17.5C0 27.165 7.835 35 17.5 35C27.165 35 35 27.165 35 17.5C35 7.835 27.165 0 17.5 0ZM2.24293 18.5938H5.99593C6.07943 20.4097 6.35386 22.0711 6.78007 23.5632H3.44514C2.77736 22.0214 2.36771 20.347 2.24293 18.5938ZM22.8986 16.4063C22.8163 14.6482 22.6079 12.9829 22.3257 11.4369H25.9109C26.3881 12.9043 26.7156 14.559 26.8144 16.4063H22.8986ZM14.7414 23.5632C14.4327 21.8587 14.2812 20.1949 14.2531 18.5938H20.7469C20.7189 20.1949 20.5674 21.8587 20.2586 23.5632H14.7414ZM19.782 25.7507C19.2691 27.7195 18.5268 29.7264 17.4998 31.7377C16.4729 29.7264 15.7307 27.7195 15.2179 25.7507H19.782ZM14.2829 16.4063C14.3696 14.6381 14.5931 12.972 14.89 11.4369H20.11C20.4069 12.972 20.6304 14.6381 20.7171 16.4063H14.2829ZM15.3816 9.24943C16.0651 6.58093 16.9097 4.4755 17.4999 3.17921C18.0901 4.4755 18.9347 6.58093 19.6184 9.24943H15.3816ZM21.8621 9.24943C21.1643 6.3575 20.2682 4.03443 19.6031 2.533C20.4297 3.12121 23.1761 5.29536 25.0495 9.24943H21.8621ZM15.3966 2.53286C14.7315 4.03429 13.8356 6.35743 13.1378 9.24943H9.95007C11.8237 5.295 14.5703 3.12086 15.3966 2.53286ZM12.6743 11.4369C12.3921 12.983 12.1838 14.6483 12.1015 16.4064H8.18521C8.284 14.5591 8.6115 12.9044 9.08879 11.4369H12.6743ZM5.99829 16.4063H2.24293C2.36771 14.6531 2.77729 12.9789 3.44507 11.4369H6.79521C6.36586 12.9287 6.086 14.589 5.99829 16.4063ZM8.18407 18.5938H12.0715C12.0964 20.1976 12.2313 21.8592 12.5173 23.5632H9.08993C8.60864 22.092 8.28 20.4368 8.18407 18.5938ZM12.9703 25.7507C13.5069 27.9781 14.3039 30.2546 15.452 32.5402C14.6772 31.9855 11.8607 29.7701 9.95107 25.7507H12.9703ZM19.5454 32.5451C20.6949 30.2579 21.4926 27.9797 22.0297 25.7507H25.0708C23.1669 29.7906 20.3383 31.9876 19.5454 32.5451ZM22.4828 23.5632C22.7689 21.8592 22.9038 20.1976 22.9286 18.5938H26.8167C26.7226 20.4401 26.3993 22.0949 25.9251 23.5632H22.4828ZM29.0036 18.5938H32.7571C32.6322 20.347 32.2226 22.0213 31.5549 23.5632H28.2196C28.6458 22.0711 28.9201 20.4097 29.0036 18.5938ZM29.0014 16.4063C28.9136 14.5889 28.6338 12.9287 28.2044 11.4369H31.555C32.2229 12.9788 32.6324 14.653 32.7571 16.4063H29.0014ZM30.3792 9.24943H27.4334C26.4556 6.89414 25.1809 5.031 23.9813 3.64686C26.6054 4.87971 28.8227 6.82829 30.3792 9.24943ZM11.018 3.64714C9.81857 5.03129 8.544 6.89436 7.56629 9.24943H4.62079C6.17714 6.82843 8.39429 4.88007 11.018 3.64714ZM4.62086 25.7507H7.5485C8.5115 28.0819 9.76821 29.9389 10.9594 31.3246C8.36136 30.0901 6.16557 28.1534 4.62086 25.7507ZM24.0411 31.3243C25.232 29.9387 26.4885 28.0818 27.4513 25.7507H30.3791C28.8346 28.1533 26.6389 30.0899 24.0411 31.3243Z" fill="#711A75"/>
</g>
</svg>
