<svg width="35" height="35" viewBox="0 0 35 35" fill="none" xmlns="http://www.w3.org/2000/svg">
<g id="efebc96e033996dc43a46c63ec1754c1 1">
<g id="Group">
<path id="Vector" d="M17.5 0.349998C8.27051 0.349998 0.791016 8.029 0.791016 17.5C0.791016 26.971 8.27401 34.65 17.5 34.65C26.7295 34.65 34.209 26.971 34.209 17.5C34.209 8.029 26.7295 0.349998 17.5 0.349998ZM22.5155 32.9035C21.7105 33.0645 21.427 32.557 21.427 32.123C21.427 31.591 21.4445 29.841 21.4445 27.671C21.4445 26.1555 20.937 25.165 20.37 24.661C23.898 24.262 27.5975 22.8865 27.5975 16.653C27.5975 14.882 26.985 13.4295 25.97 12.2955C26.131 11.886 26.677 10.2375 25.8125 8.001C25.8125 8.001 24.486 7.5635 21.462 9.667C20.1985 9.3065 18.844 9.1245 17.5 9.1175C16.1525 9.1245 14.798 9.303 13.538 9.667C10.514 7.567 9.18401 8.001 9.18401 8.001C8.32301 10.2375 8.86551 11.886 9.03001 12.2955C8.01851 13.4295 7.40251 14.8785 7.40251 16.653C7.40251 22.8725 11.0985 24.2655 14.6125 24.675C14.161 25.081 13.7515 25.795 13.608 26.845C12.705 27.258 10.4125 27.9755 9.00201 25.494C9.00201 25.494 8.16551 23.9365 6.57651 23.821C6.57651 23.821 5.02951 23.8 6.46801 24.808C6.46801 24.808 7.50751 25.305 8.22501 27.181C8.22501 27.181 9.15601 30.338 13.559 29.358C13.566 30.7125 13.58 31.7345 13.58 32.1195C13.58 32.55 13.293 33.0505 12.4985 32.9C6.20551 30.7545 1.67302 24.6715 1.67302 17.5C1.66952 8.54 8.75701 1.274 17.5 1.274C26.243 1.274 33.3305 8.54 33.3305 17.507C33.3305 24.675 28.798 30.7545 22.5155 32.9035Z" fill="#F10086"/>
</g>
</g>
</svg>
