<svg width="92" height="86" viewBox="0 0 92 86" fill="none" xmlns="http://www.w3.org/2000/svg">
<g id="download-icon-html+social+website+icon-1320195356355617093_0 1">
<path id="Vector" d="M8.3375 3.58333L15.0458 74.2646L46 82.3271L77.05 74.2646L83.7583 3.58333H8.3375ZM4.12083 0H87.8792L80.5 77.0417L45.9042 86L11.4042 77.0417L4.12083 0ZM29.1333 23.2917L32.2 37.625H46.1917H63.25C63.825 37.625 64.3042 37.8042 64.6875 38.2521C65.0708 38.6104 65.2625 39.1479 65.1667 39.5958L63.25 57.5125C63.1542 58.2292 62.675 58.7667 62.0042 59.0354L46.6708 64.4104C46.1917 64.5896 45.8083 64.5896 45.3292 64.4104L29.9958 59.0354C29.2292 58.7667 28.75 58.1396 28.75 57.3333V50.1667C28.75 49.1812 29.6125 48.375 30.6667 48.375C31.2417 48.375 31.7208 48.6437 32.1042 49.0021C32.3917 49.3604 32.5833 49.7188 32.5833 50.1667V56.0792L46 60.8271L59.5125 56.0792L61.1417 41.2083H41.7833H30.6667C29.7083 41.2083 28.9417 40.5812 28.75 39.775L24.9167 21.8583C24.8208 21.3208 24.9167 20.7833 25.3 20.3354C25.6833 19.8875 26.1625 19.7083 26.7375 19.7083H65.0708C66.125 19.7083 66.9875 20.5146 66.9875 21.5C66.9875 22.4854 66.125 23.2917 65.0708 23.2917H63.9208H29.1333Z" fill="#F582A7"/>
</g>
</svg>
