<svg width="118" height="113" viewBox="0 0 118 113" fill="none" xmlns="http://www.w3.org/2000/svg">
<g id="367772 1">
<path id="Vector" d="M47.9375 19.4221H29.5V66.3211C29.5 77.9256 25.3442 81.1658 18.1121 81.1658C14.723 81.1658 11.6709 80.6094 9.29665 79.8277L7.375 93.5569C10.7629 94.6741 15.962 95.3438 20.0293 95.3438C36.6342 95.3438 47.9375 87.8683 47.9375 66.4361V19.4221ZM88.1458 17.6562C70.2976 17.6562 59 27.3667 59 40.202C59 51.2554 67.7004 58.176 80.3509 62.6397C89.5005 65.7645 93.117 68.5564 93.117 73.1317C93.117 78.1541 88.9365 81.3916 81.0294 81.3916C73.6859 81.3916 67.0194 79.0433 62.5011 76.7005V76.6959L59 90.6487C63.2957 92.9966 71.3165 95.3398 80.0111 95.3398C100.912 95.3393 110.625 84.6242 110.625 72.0119C110.625 61.2968 104.412 54.3777 90.9711 49.4642C81.0289 45.6701 76.8503 43.5505 76.8503 38.7508C76.8503 34.9547 80.4659 31.4965 87.9227 31.4965C95.2622 31.4965 100.309 33.8596 103.25 35.3127L107.658 21.1877C103.048 19.2497 96.8402 17.6562 88.1458 17.6562Z" fill="#F10086"/>
</g>
</svg>
