<svg width="98" height="95" viewBox="0 0 98 95" fill="none" xmlns="http://www.w3.org/2000/svg">
<g id="download-icon-MATLAB-1324888738081283918_0 1">
<path id="Vector" d="M94.9097 68.2079C89.3627 54.63 84.7582 40.704 79.4584 27.0362C77.1176 21.2171 74.8269 15.3494 71.6362 9.90479C70.3692 7.95008 69.1562 5.80069 67.078 4.55002C66.5537 4.22703 65.9624 4.0899 65.3784 4.10069C64.4051 4.1186 63.4373 4.54065 62.6937 5.14914C59.9048 7.29103 58.2515 10.4065 56.3973 13.2749C53.1216 18.5997 49.6683 24.1754 44.1908 27.6354C41.6181 29.3953 38.2497 29.5863 35.7698 31.4736C32.3782 33.9525 30.0721 37.4686 27.2909 40.5167C26.6574 41.2507 25.6762 41.5427 24.8187 41.9396C16.5213 45.2199 8.22007 48.4927 0 51.9377C6.96078 57.1576 14.3774 61.8009 21.4773 66.8411C23.4242 66.4667 25.3788 65.6915 27.3874 66.036C30.5704 67.0021 32.4362 69.9604 33.8963 72.6639C36.863 78.5579 39.0069 84.7814 41.4095 90.9C45.4269 90.6229 49.0425 88.6159 52.1482 86.2568C58.1279 81.5611 62.6821 75.4948 67.6961 69.893C70.0988 67.444 72.5478 64.527 76.1557 63.8454C79.8022 62.9917 83.7075 64.2573 86.4115 66.6913C90.2048 69.9791 93.5655 73.7798 98 76.2962C97.4051 73.4503 95.9759 70.8965 94.9097 68.2079ZM32.892 58.6405C29.3923 60.6476 25.6762 62.2989 22.0374 64.0514C16.3281 60.3443 10.7657 56.4162 5.15687 52.5743C12.7203 49.3614 20.3996 46.377 28.0634 43.3813C31.6945 46.1299 35.4415 48.7398 39.0725 51.4883C37.3652 54.132 35.3101 56.5884 32.892 58.6405ZM40.6756 49.4288C37.0677 46.8001 33.4135 44.2426 29.8597 41.5465C32.1387 38.5358 34.6341 35.6263 37.6239 33.2522C39.6017 32.024 42.0198 31.6832 44.0749 30.5749C48.9498 28.2157 52.2757 23.887 55.4509 19.753C51.3795 29.9982 47.0338 40.2846 40.6756 49.4288Z" fill="#F582A7"/>
</g>
</svg>
