<svg width="64" height="37" viewBox="0 0 64 37" fill="none" xmlns="http://www.w3.org/2000/svg">
<g id="navBarIcon">
<path id="top" d="M60.7935 8H3.20653C1.43673 8 0 6.20774 0 4C0 1.79226 1.43673 0 3.20653 0H60.7935C62.5633 0 64 1.79226 64 4C64 6.20774 62.5633 8 60.7935 8Z" fill="#180A0A"/>
<path id="mid" d="M60.7935 23H3.20653C1.43673 23 0 21.2077 0 19C0 16.7923 1.43673 15 3.20653 15H60.7935C62.5633 15 64 16.7923 64 19C64 21.2077 62.5633 23 60.7935 23Z" fill="#180A0A"/>
<path id="bottom" d="M60.7935 37H3.20653C1.43673 37 0 35.2077 0 33C0 30.7923 1.43673 29 3.20653 29H60.7935C62.5633 29 64 30.7923 64 33C64 35.2077 62.5633 37 60.7935 37Z" fill="#180A0A"/>
</g>
</svg>
