<svg width="1032" height="544" viewBox="0 0 1032 544" fill="none" xmlns="http://www.w3.org/2000/svg">
<g id="noteBook">
<g id="layer1">
<g id="bottom">
<g id="g4104" opacity="0.6">
<path id="path3041" opacity="0.2" d="M1031.64 513.752C1031.64 521.729 977.295 529.379 880.556 535.022C783.823 540.661 652.622 543.829 515.819 543.829C379.015 543.829 247.815 540.661 151.08 535.022C54.3452 529.379 0.000152588 521.729 0.000152588 513.752C0.000152588 505.775 54.3452 498.126 151.08 492.487C247.815 486.843 379.015 483.675 515.819 483.675C652.622 483.675 783.823 486.843 880.556 492.487C977.295 498.126 1031.64 505.775 1031.64 513.752Z" fill="url(#paint0_radial_9_13)"/>
<g id="g2036" opacity="0.6">
<g id="g3712" opacity="0.4">
<path id="rect2801" opacity="0.4" d="M1022.26 503.726H888.984V528.791H1022.26V503.726Z" fill="url(#paint1_radial_9_13)"/>
<path id="rect3696" opacity="0.4" d="M9.37833 528.791H142.652V503.726H9.37833V528.791Z" fill="url(#paint2_radial_9_13)"/>
<path id="rect3700" opacity="0.4" d="M888.984 503.726H142.652V528.791H888.984V503.726Z" fill="url(#paint3_linear_9_13)"/>
</g>
</g>
</g>
<path id="rect3835-4" d="M32.576 498.04H1000.79C1006.57 498.04 1011.25 502.285 1011.25 507.525C1011.25 512.761 1006.57 517.01 1000.79 517.01H32.576C26.8014 517.01 22.1201 512.761 22.1201 507.525C22.1201 502.285 26.8014 498.04 32.576 498.04Z" fill="#1F1F1F"/>
<path id="rect3835" d="M1011.25 491.401H22.12V507.525H1011.25V491.401Z" fill="#303030"/>
</g>
<g id="top">
<path id="rect3029" d="M908.516 0.547989H124.853C117.777 0.547989 112.041 5.75248 112.041 12.1726V484.993C112.041 491.41 117.777 496.617 124.853 496.617H908.516C915.594 496.617 921.329 491.41 921.329 484.993V12.1726C921.329 5.75248 915.594 0.547989 908.516 0.547989Z" fill="#1F1F1F"/>
<path id="rect3029-4" d="M890.646 25.9133H142.725C140.504 25.9133 138.704 27.5471 138.704 29.5622V451.938C138.704 453.954 140.504 455.585 142.725 455.585H890.646C892.868 455.585 894.667 453.954 894.667 451.938V29.5622C894.667 27.5471 892.868 25.9133 890.646 25.9133Z" fill="black"/>
<path id="path3967" opacity="0.05" d="M522.235 13.4007C522.235 14.7358 521.65 16.0163 520.61 16.9604C519.569 17.9044 518.157 18.4349 516.685 18.4349C515.214 18.4349 513.802 17.9044 512.761 16.9604C511.72 16.0163 511.136 14.7358 511.136 13.4007C511.136 12.0655 511.72 10.7851 512.761 9.84101C513.802 8.89692 515.214 8.36652 516.685 8.36652C518.157 8.36652 519.569 8.89692 520.61 9.84101C521.65 10.7851 522.235 12.0655 522.235 13.4007Z" fill="white"/>
<path id="rect3029-0-4" opacity="0.03" d="M479.711 0.540787L661.301 479.284H903.586C912.907 479.284 920.43 472.483 920.43 464.017V25.928C920.43 25.928 921 25.2764 921.329 24.9055V12.1748C921.329 5.73475 915.615 0.540787 908.521 0.540787H479.711Z" fill="white"/>
</g>
</g>
</g>
<defs>
<radialGradient id="paint0_radial_9_13" cx="0" cy="0" r="1" gradientUnits="userSpaceOnUse" gradientTransform="translate(515.819 513.752) scale(515.819 30.0774)">
<stop/>
<stop offset="1" stop-opacity="0"/>
</radialGradient>
<radialGradient id="paint1_radial_9_13" cx="0" cy="0" r="1" gradientUnits="userSpaceOnUse" gradientTransform="translate(888.801 516.261) scale(133.526 12.5322)">
<stop stop-color="#181818"/>
<stop offset="1" stop-color="#181818" stop-opacity="0"/>
</radialGradient>
<radialGradient id="paint2_radial_9_13" cx="0" cy="0" r="1" gradientUnits="userSpaceOnUse" gradientTransform="translate(142.839 516.261) rotate(180) scale(133.526 12.5322)">
<stop stop-color="#181818"/>
<stop offset="1" stop-color="#181818" stop-opacity="0"/>
</radialGradient>
<linearGradient id="paint3_linear_9_13" x1="544.022" y1="528.89" x2="544.022" y2="503.726" gradientUnits="userSpaceOnUse">
<stop stop-color="#181818" stop-opacity="0"/>
<stop offset="0.5" stop-color="#181818"/>
<stop offset="1" stop-color="#181818" stop-opacity="0"/>
</linearGradient>
</defs>
</svg>
