<svg width="99" height="103" viewBox="0 0 99 103" fill="none" xmlns="http://www.w3.org/2000/svg">
<g id="reactIcon">
<path id="Vector" d="M49.4234 60.0507C53.9956 60.0507 57.7021 56.1944 57.7021 51.4374C57.7021 46.6805 53.9956 42.8242 49.4234 42.8242C44.8512 42.8242 41.1447 46.6805 41.1447 51.4374C41.1447 56.1944 44.8512 60.0507 49.4234 60.0507Z" fill="#F582A7"/>
<path id="Vector_2" d="M49.4234 33.9263C60.5365 33.9263 70.8616 35.5857 78.6452 38.3724C88.0237 41.7311 93.7909 46.8233 93.7909 51.4345C93.7909 56.2392 87.679 61.6502 77.6083 65.12C69.9944 67.7444 59.9729 69.1164 49.4234 69.1164C38.6058 69.1164 28.3655 67.8298 20.664 65.0915C10.9216 61.6275 5.05315 56.1481 5.05315 51.4345C5.05315 46.8603 10.5604 41.808 19.8077 38.4549C27.6213 35.6227 38.2009 33.9263 49.4234 33.9263V33.9263Z" stroke="#F582A7" stroke-width="3" stroke-miterlimit="10"/>
<path id="Vector_3" d="M34.7728 42.733C40.3239 32.7165 46.8654 24.2399 53.0758 18.6183C60.5584 11.8438 67.6798 9.19098 71.5182 11.4937C75.5181 13.8932 76.9708 22.1051 74.8286 32.9186C73.209 41.0935 69.346 50.8083 64.0739 60.3181C58.6706 70.0671 52.4821 78.6547 46.3565 84.2279C38.6058 91.2785 31.1095 93.8288 27.1863 91.4749C23.378 89.1892 21.9225 81.7032 23.7473 71.6923C25.2903 63.2271 29.1643 52.8463 34.7728 42.733V42.733Z" stroke="#F582A7" stroke-width="3" stroke-miterlimit="10"/>
<path id="Vector_4" d="M34.7865 60.3381C29.219 50.3301 25.4271 40.2026 23.8458 31.7972C21.9416 21.6697 23.2877 13.9246 27.1234 11.6162C31.1205 9.20814 38.6824 12.0005 46.6164 19.33C52.6162 24.8719 58.7746 33.2062 64.0603 42.7075C69.48 52.4479 73.5428 62.3135 75.1214 70.6165C77.1213 81.1254 75.5017 89.1551 71.5812 91.5148C67.7756 93.8061 60.8155 91.381 53.3904 84.7346C47.1198 79.1187 40.4087 70.4428 34.7865 60.3381Z" stroke="#F582A7" stroke-width="3" stroke-miterlimit="10"/>
</g>
</svg>
